# xmcd
#
# Track frame offsets:
#	150
#	16963
#	28932
#	42537
#	55311
#	71371
#	79367
#	90510
#	107398
#	119680
#	131304
#	143214
#	156732
#	168987
#
# Disc length: 2404 seconds
#
# Revision: 0
# Processed by: cddbd v1.5.2PL0 Copyright (c) Steve Scherf et al.
# Submitted via: dBpowerAMP V4.0
#
DISCID=c109620e
DTITLE=Slim Connor - Picture Of Home
DYEAR=1900
DGENRE=Country
TTITLE0=Picture Of Home
TTITLE1=Winter Winds
TTITLE2=Little Boy Lost
TTITLE3=Dreaming On The Sliprail
TTITLE4=Where Country Is
TTITLE5=Journey's End
TTITLE6=My Pal Alcohol
TTITLE7=Little Girl Dressed In Blue
TTITLE8=Be Careful Of Stones That You Throw
TTITLE9=The Biggest Disappointment
TTITLE10=Mother's Chair
TTITLE11=Malley Dust
TTITLE12=Country Revival
TTITLE13=Yodel Sweet Molly
EXTD=
EXTT0=
EXTT1=
EXTT2=
EXTT3=
EXTT4=
EXTT5=
EXTT6=
EXTT7=
EXTT8=
EXTT9=
EXTT10=
EXTT11=
EXTT12=
EXTT13=
PLAYORDER=
